<?xml version="1.0" encoding="UTF-8" standalone="no"?>
<!DOCTYPE svg PUBLIC "-//W3C//DTD SVG 1.1//EN" "http://www.w3.org/Graphics/SVG/1.1/DTD/svg11.dtd">
<svg xmlns="http://www.w3.org/2000/svg" version="1.1" xmlns:xlink="http://www.w3.org/1999/xlink" width="650px" height="3030.0px">
<style>text {font-family:PingFangSC-Regular, Microsoft YaHei, 'Hiragino Sans GB', Helvetica; ;font-size:14px;fill:#333;}</style>
	<text x="0" y="44">续智让局窗酷载牧保哄晕炮愿隔骨理缩虑惯偶视况坑蕉凝息饰须毛践现洪兽燥录帐寨煎砖蜜汇问</text>
	<text x="0" y="83">摊塞所顽地厨柴买切掠霸牢衣团歇羡绕缘跨馒荒钩蛮民嫂钱怒石匀锤怜俱矮状待吉睡闲漆豆尝斑</text>
	<text x="0" y="118">今母粮你瞎雷示写装唯除疯耳敏椒武惜沾品怖巷肩疫些马零修气是秤知商胳露踩妙统歉叼呼先闪</text>
	<text x="0" y="159">学眉踪解墨亭恩厂初善同育朵壮董倒格集缎炒费组鉴流苹面圾证谜穿锁浅迫杏夕绣谋境会驶虚稿</text>
	<text x="0" y="195">叹彼乙馆租悟朋犯吐桥探毫给颤傲恰幅刃百丹棉笑白箭贱煮事热陡跃五周循里拦鱼感贩披士逝偿</text>
	<text x="0" y="243">优奋妨乏肺嫌祥构裤煌铸竿寻鼻勾倡也牺脆氏蚁裳罚灵玻盖无萌裙笨淹料瘦果完廉率易使临藏葵</text>
	<text x="0" y="284">暑埋拳筑沟绳伯答陈库伟基汽棚轻滨摩编欧臣陷滩刑败泡秒哈清垦凳脸哨袜简想度湿堤们攀狐呀</text>
	<text x="0" y="319">蜻驰荐战扬首厕致颗拢满太饿效惰验演妇晃钓依仰拍宰星展昏劈叛蜘台爸搁忆赖币姨掩衰烈朽扣</text>
	<text x="0" y="356">巾串排坏势傍闯签征懂议讨桐绍掌座努售档堡捧仿酿危套遥咳慈副帖免合匆捏额铺腿航刘柄伐蓝</text>
	<text x="0" y="394">顷抹内宫弟维辩拘灰奇原神群唱趋歌冻摘层娃窄奔勒奶鸡荡高赏妈甲宣锦肆狠冰老愧逢从沿拥始</text>
	<text x="0" y="433">菜客端贤蒙歼已恐全转上暮雕舱峰榆名多日舒任柱救向刮粪掘壶缝单敌社秆政盼采协仁呜挨炼笼</text>
	<text x="0" y="479">处冠湾熟屑狱翠睛若涛欲痰暴辫旋忍袋培及梯自巧栗疼市抵产驾韵迟坝丑疾书棵筛贴达绝捆预误</text>
	<text x="0" y="521">工宙迁尖最壤锻片浸羽张腔够弓红玩放截醒卜恨阵捞驼吗扑亚冶冈雨泉定挡慨崭响惹蓬涉剑永彻</text>
	<text x="0" y="564">卷样悬屡匠寄绢膛寇望官版晴必活惊珠晓餐粒魄直守扎诱冲余封功更弊疆典站看喂贷搭友幼济绵</text>
	<text x="0" y="607">底刊范食献节水乳戒丘撕屈尾很畜碰固寺可程镰滴允了帜嘉净阿丸姥奉代咸绞川犹颂堵俗筋哭粥</text>
	<text x="0" y="644">女嗽队么雀详葡浇年盘主珍伍那说纯罩鸟痕脉毙接晶土劳绸质鹿斤烧瓣衬砍钻精经纲史板肃汤痛</text>
	<text x="0" y="679">楼肤旁剃暖怕脖掀步陪贯霜挖粘脊购融忠喝跳描剪狗泪咐杂真睁垃继森黎嚷斯吓混儿良酬甩丁防</text>
	<text x="0" y="724">六论乞庄烘棍岭拒结揭伞式杯八着种盏则袄奥列桂译惧佛核葬鞋炊抗前研佳每劝景既比递脂愁界</text>
	<text x="0" y="772">井悦焦掏踏亏尼者熔互找存照错舌个夫场恢薪为蓄氧估贫决足闻肝然膨份遇沸苗办皮帽烟皂嘴或</text>
	<text x="0" y="815">漂鹅撤粗惨月昂逐昨悉苍搜求承票避榜卸便婚雄靠顾意抄饲喷她业央糠究舟搏纽播猛弄秧泄厦逮</text>
	<text x="0" y="848">糟模操行蛛煤画梅府怨般姑像距聋公快页突携慌樱侦舅勤雁弃刷速软亿降握挥粉框猪饱腊变遮锋</text>
	<text x="0" y="893">姜叠姿臂刚斜卡干狡益秘资麦遣烦题裂帮妄窑对乃浑口亮励惑扇趴逼雹颈圣植汁喉恶素物鸦唐渣</text>
	<text x="0" y="936">讯阴扩择畏诵僚汉纵换晨盾读瓜摧和叔槐辰逆聚尺锹德龙供幻桃纱嚼泥鼓适滚坟骗禾躬尸元竟仆</text>
	<text x="0" y="975">雾稠侧怪链抢挺饥授鸽子颜障览袭耗犁飞射课弱父疤凉孝负止贸伸枯垂参且型僵乔巨血健凯恳棋</text>
	<text x="0" y="1018">志情但之呆肚未丈晒千州戚汪兴造等瓦赴骑蚂犬锐背糊严驳乒火营源松暗厘役堪湖虾盈勺往咱托</text>
	<text x="0" y="1061">喜括竖磁规门胃奴圆坚倦释讽当哥灿殖盟堆均律宜田谈小壳聪容货废宁赔豪趟告储富垄杨纪墓困</text>
	<text x="0" y="1096">吹实耕图赚琴扭赛蔑项冒飘堂虫确肢淘羊谷席尽透娇磨他叶凭墙信眯欺称并亡久扯占扁帝到奖渠</text>
	<text x="0" y="1132">毁吊捡案金慧杆言泼手笋娱仍狸希族入剩威虎世讲番搂妥捉傻闷剂吧盗栏挠胞仗治幸招宝躲衫远</text>
	<text x="0" y="1175">伙纳北郊略店就青谊乡泻似联县拐何蚀柔潮葛沃隶炎偏关骄胁橡博鞭裕卖碑押盯榴锡仓裁岸积身</text>
	<text x="0" y="1211">茅碍俯启句整婶江追根莲赢去硬出要枕柿长艘艳道骡蛇妻辞加绒领云楚用角徒宋醉洒屠闹线恋涌</text>
	<text x="0" y="1251">回影钞取忘剖慕溉痒剥茧蚕谎毕遵岔矿俘猎叮师兼康途争督因不杰伤点辽什系愈午计孙报玉钥殃</text>
	<text x="0" y="1296">性绿教雅训减静拣戏昌束乖蛙技哪撒礼双记驱搬您请独索谣铃貌喘凡表撞贝练宵这急党访妹滋帆</text>
	<text x="0" y="1344">支葱摄夏洲萄省笔碎著将蔽溜胜诊沙崖延廊谢朴叙驴婆贵蠢相龄熄召大俭财崇奏弦渔童梢叫插宇</text>
	<text x="0" y="1384">脱过泊引形壁针该阻赤挣削归邀呈帘杀再哗钳乓攻稍助弹柏穴猜阔贡风米敞贞巡非唉洋础懒吞臭</text>
	<text x="0" y="1416">蒜盒被轰刀敢域萝寒芬银症圈纠仇槽华盛低险分摇旨瞧路熊滤陵码丧庆新两茂苦厌帅丝符执辉迎</text>
	<text x="0" y="1460">断刺匙特激汗厉常吃乐陕挎默捷峡古抓舞天蜓消碧三稀催蹄浪克囊蔬巴横值备木姻务酒体浩扶狂</text>
	<text x="0" y="1503">肾宴正拼具嘱平烫陆篮骂搅深棕誉销惭拴重旧级炉波馅梦建击间愚法浮滑烂明邪鼠牵渡都映失旷</text>
	<text x="0" y="1544">限冤责居落专梨迈龟沫勿尘啊家挤挂斥趣语七浙监十总屯膝泰渐遭沉鬼毒涝树轮债农订漠叨轨悔</text>
	<text x="0" y="1594">通机宏温亦受矩如借俩跪烛饭没缓部黑爹斩忽迷作许我茎虽菌怎籍爪听塑昼港骆锄乘誓带辨锯户</text>
	<text x="0" y="1640">破架获吩充私施织人劫游偷兵倍禽卧窃蝇旱旺旬娘桑坦令贪村脏乎连改铲朗钢燕饶倘辜尚肥愤酸</text>
	<text x="0" y="1681">随岂芒把芽驻寸佩敬桨缠吵狮别宗否申淡材阀淋笛桌态钟价稳盆粱稻爷扔付夹锈创抬搞耐山窝算</text>
	<text x="0" y="1719">又予拿隐俊林黄恭脑御退序早乌秩款色栋才邻鸣少好投赞谨曲垒宿损卵茄顺饺析抖凶洞惠穗仅光</text>
	<text x="0" y="1768">蹲叉缴璃垮肯纷翻旗荣浴李注撑万国头敲砌甘倾镜挪浆坡孟死竭垫军桶芝安段柜虏菊概增啦袖翅</text>
	<text x="0" y="1799">炸紧晚膜边盐拌类拆包君际触拔目与舍馋美肌由岗澡幕肉株忧姓做冬齐评箩伏薄振选几捎控绘差</text>
	<text x="0" y="1836">跌焰津径肠员亲文灾识野胖亩滔掉于铜疲咽享遗校辅棒庭霞革介塌散蚊晌罗房围科丙开鞠诸侮右</text>
	<text x="0" y="1884">据丛伶坛愉耻扫阶策竞揪进沈咬得下皇兆缺齿按魂赌裹蜡欢顶习替洗祝抱拜橘宅漫昆丢阅哲撇拉</text>
	<text x="0" y="1922">悼秀蹦骤蛋蝶章脾镇难认梁己吼哑匹方萍牛朱丽赠终司权洁英税蝴逃删鹊持股收左兔恒铅凤液候</text>
	<text x="0" y="1967">睬艇灌班筝牌稼休怠阳疗医孩侵擦址派四尿腹惕的袍近补院洽即揉强嗓咏象倚有禁挽立皱东泛芳</text>
	<text x="0" y="2002">络岛渗夺匪警贺浓牙输吸凑应器塘腰欣润奸耍蛾仙另检阁极曾纸谱宾纺疮侄瞒漏诗膏其起见坐菠</text>
	<text x="0" y="2036">职拖翁莫孤郎摸挑殊发送辆运贼遍膀罪压皆秃芦劲审胆霉勉义啄较它室胸辱次烤吴瑞塔外隆顿伪</text>
	<text x="0" y="2083">福一雪心坊锣侍傅制害繁蒸爱调厚辣腾花推兄提柳填岁篇艺置力键捐耀彩糖狼孕号涂街准毯芹利</text>
	<text x="0" y="2118">筒谅季窜醋迹超喊趁紫鸭胀反渴西思诉鹰闸而荷爬妖苏球屿秋膊配此南管判疑糕企块仔捕短命网</text>
	<text x="0" y="2156">第返杠委春登区诞耽园至字涨闭跑枣微动溪辟普姐属中觉附岩筐鄙绩停尤留颠折查标寿缸抽考隙</text>
	<text x="0" y="2199">二枝绪观弯伴舰细药城拾嫁术摔扒躁越震故慎测扮件音酱援螺例述斧券以茫胡厅布栽冷本吨甚碗</text>
	<text x="0" y="2248">病欠畅丰辈忌悲覆翼察罢摆灭浊燃赶河鲜约眠慰泳批轧划池魔化设污穷位饼肿来纹祖屋庸打拨慢</text>
	<text x="0" y="2290">轿衡絮灯甜谦谁椅陶衔抛茶升疏锅患旦巩含猾刻劣促暂僻服移香炭扰交炕累狭船邮梳忙戴生祸躺</text>
	<text x="0" y="2330">车环话迅京蜂尊羞量唤男假询后半添空贿牲晋违徐油虹毅竹兰勇末声麻显泽众盲悠异鲁广剧榨怀</text>
	<text x="0" y="2380">届册住碌悄饮割念期传惩词仪庙在夸赵喇护胶指恼蹈薯灶爆密脚成箱哀抚却滥复时筹杜草艰历猫</text>
	<text x="0" y="2419">诚离味导罐举共眼踢养呢嫩钉铁旅残各能扛床某逗条宪染唇佣殿卫歪数九瓶乱宽郑辛矛只还腐腥</text>
	<text x="0" y="2463">猴枪绑王斗电海跟朝孔夜械担眨纤试爽需侨潜走</text>
</svg>